<svg width="24" height="28" viewBox="0 0 24 28" fill="none" xmlns="http://www.w3.org/2000/svg">
<path fill-rule="evenodd" clip-rule="evenodd" d="M21.3333 3.33332H20V0.666656H17.3333V3.33332H6.66667V0.666656H4V3.33332H2.66667C1.18667 3.33332 0 4.53332 0 5.99999V24.6667C0 26.1333 1.18667 27.3333 2.66667 27.3333H21.3333C22.8 27.3333 24 26.1333 24 24.6667V5.99999C24 4.53332 22.8 3.33332 21.3333 3.33332ZM21.3333 24.6667H2.66667V9.99999H21.3333V24.6667ZM4.66667 15.3333C4.66667 13.4933 6.16 12 8 12C9.84 12 11.3333 13.4933 11.3333 15.3333C11.3333 17.1733 9.84 18.6667 8 18.6667C6.16 18.6667 4.66667 17.1733 4.66667 15.3333Z" fill="black"/>
</svg>
